<svg width="69" height="40" viewBox="0 0 69 40" fill="none" xmlns="http://www.w3.org/2000/svg">
<g id="Icon ionic-ios-fitness" clip-path="url(#clip0_130_3528)">
<path id="Path 1" d="M49.8741 23.69H19.9498C19.2641 23.69 18.703 23.129 18.703 22.4432V17.4558C18.703 16.7701 19.2641 16.209 19.9498 16.209H49.8741C50.5599 16.209 51.121 16.7701 51.121 17.4558V22.4432C51.121 23.129 50.5599 23.69 49.8741 23.69Z" fill="#0BAAE3"/>
<path id="Path 2" d="M52.926 36.4702V3.42882C52.926 1.54297 54.469 0 56.3548 0V0C58.2407 0 59.7837 1.54297 59.7837 3.42882V36.4702C59.7837 38.3561 58.2407 39.899 56.3548 39.899V39.899C54.469 39.899 52.926 38.3561 52.926 36.4702Z" fill="#0BAAE3"/>
<path id="Path 3" d="M65.7061 9.97501H63.8358C63.1501 9.97501 62.589 10.5361 62.589 11.2219V28.6777C62.589 29.3634 63.1501 29.9245 63.8358 29.9245H65.7061C67.4205 29.9245 68.8232 28.5218 68.8232 26.8074V13.0921C68.8232 11.3777 67.4205 9.97501 65.7061 9.97501Z" fill="#0BAAE3"/>
<path id="Path 4" d="M15.8976 36.4702V3.42882C15.8976 1.54297 14.3547 0 12.4688 0V0C10.5829 0 9.03998 1.54297 9.03998 3.42882V36.4702C9.03998 38.3561 10.5829 39.899 12.4688 39.899V39.899C14.3547 39.899 15.8976 38.3561 15.8976 36.4702Z" fill="#0BAAE3"/>
<path id="Path 5" d="M4.98738 9.97501H3.11711C1.4027 9.97501 0 11.3777 0 13.0921V26.8074C0 28.5218 1.4027 29.9245 3.11711 29.9245H4.98738C5.67314 29.9245 6.23422 29.3634 6.23422 28.6777V11.2219C6.23422 10.5361 5.67314 9.97501 4.98738 9.97501Z" fill="#0BAAE3"/>
</g>
<defs>
<clipPath id="clip0_130_3528">
<rect width="69" height="40" fill="white"/>
</clipPath>
</defs>
</svg>
